<mxfile host="app.diagrams.net" agent="Mozilla/5.0 (Windows NT 10.0; Win64; x64) AppleWebKit/537.36 (KHTML, like Gecko) Chrome/137.0.0.0 Safari/537.36" version="27.1.4">
  <diagram name="Страница — 1" id="qzwf6YQnpn-QED2DMshg">
    <mxGraphModel dx="1226" dy="661" grid="1" gridSize="10" guides="1" tooltips="1" connect="1" arrows="1" fold="1" page="1" pageScale="1" pageWidth="1169" pageHeight="827" math="0" shadow="0">
      <root>
        <mxCell id="0" />
        <mxCell id="1" parent="0" />
        <mxCell id="BTguro4Eah1eRTWzlFvn-1" value="Авторизованный&amp;nbsp;&lt;div&gt;пользователь&lt;/div&gt;" style="shape=umlActor;verticalLabelPosition=bottom;verticalAlign=top;html=1;outlineConnect=0;" vertex="1" parent="1">
          <mxGeometry x="260" y="250" width="30" height="60" as="geometry" />
        </mxCell>
        <mxCell id="BTguro4Eah1eRTWzlFvn-2" value="Гость" style="shape=umlActor;verticalLabelPosition=bottom;verticalAlign=top;html=1;outlineConnect=0;" vertex="1" parent="1">
          <mxGeometry x="252.5" y="384" width="30" height="60" as="geometry" />
        </mxCell>
        <mxCell id="BTguro4Eah1eRTWzlFvn-3" value="Администратор" style="shape=umlActor;verticalLabelPosition=bottom;verticalAlign=top;html=1;outlineConnect=0;" vertex="1" parent="1">
          <mxGeometry x="600" y="300" width="30" height="60" as="geometry" />
        </mxCell>
        <mxCell id="BTguro4Eah1eRTWzlFvn-5" value="Просмотр блога" style="ellipse;whiteSpace=wrap;html=1;" vertex="1" parent="1">
          <mxGeometry x="375.5" y="244" width="99" height="66" as="geometry" />
        </mxCell>
        <mxCell id="BTguro4Eah1eRTWzlFvn-7" value="Просмотр вопроса" style="ellipse;whiteSpace=wrap;html=1;" vertex="1" parent="1">
          <mxGeometry x="361" y="330" width="99" height="66" as="geometry" />
        </mxCell>
        <mxCell id="BTguro4Eah1eRTWzlFvn-8" value="" style="endArrow=none;html=1;rounded=0;entryX=0;entryY=0.5;entryDx=0;entryDy=0;" edge="1" parent="1" target="BTguro4Eah1eRTWzlFvn-5">
          <mxGeometry width="50" height="50" relative="1" as="geometry">
            <mxPoint x="300" y="270" as="sourcePoint" />
            <mxPoint x="340" y="210" as="targetPoint" />
          </mxGeometry>
        </mxCell>
        <mxCell id="BTguro4Eah1eRTWzlFvn-9" value="" style="endArrow=none;html=1;rounded=0;entryX=0;entryY=0;entryDx=0;entryDy=0;" edge="1" parent="1" target="BTguro4Eah1eRTWzlFvn-7">
          <mxGeometry width="50" height="50" relative="1" as="geometry">
            <mxPoint x="300" y="280" as="sourcePoint" />
            <mxPoint x="370" y="320" as="targetPoint" />
          </mxGeometry>
        </mxCell>
        <mxCell id="BTguro4Eah1eRTWzlFvn-10" value="Оценить блог" style="ellipse;whiteSpace=wrap;html=1;" vertex="1" parent="1">
          <mxGeometry x="230" y="140" width="75" height="50" as="geometry" />
        </mxCell>
        <mxCell id="BTguro4Eah1eRTWzlFvn-11" value="Оставить комментарий" style="ellipse;whiteSpace=wrap;html=1;" vertex="1" parent="1">
          <mxGeometry x="330" y="110" width="105" height="70" as="geometry" />
        </mxCell>
        <mxCell id="BTguro4Eah1eRTWzlFvn-12" value="" style="endArrow=classic;dashed=1;html=1;rounded=0;exitX=0.5;exitY=1;exitDx=0;exitDy=0;endFill=1;startFill=0;entryX=0.5;entryY=0;entryDx=0;entryDy=0;" edge="1" parent="1" source="BTguro4Eah1eRTWzlFvn-11" target="BTguro4Eah1eRTWzlFvn-5">
          <mxGeometry width="50" height="50" relative="1" as="geometry">
            <mxPoint x="470" y="240" as="sourcePoint" />
            <mxPoint x="430" y="210" as="targetPoint" />
          </mxGeometry>
        </mxCell>
        <mxCell id="BTguro4Eah1eRTWzlFvn-13" value="" style="endArrow=classic;dashed=1;html=1;rounded=0;exitX=1;exitY=1;exitDx=0;exitDy=0;endFill=1;startFill=0;entryX=0.101;entryY=0.197;entryDx=0;entryDy=0;entryPerimeter=0;" edge="1" parent="1" source="BTguro4Eah1eRTWzlFvn-10" target="BTguro4Eah1eRTWzlFvn-5">
          <mxGeometry width="50" height="50" relative="1" as="geometry">
            <mxPoint x="320" y="180" as="sourcePoint" />
            <mxPoint x="337" y="247" as="targetPoint" />
          </mxGeometry>
        </mxCell>
        <mxCell id="BTguro4Eah1eRTWzlFvn-14" value="&quot;extend&quot;" style="text;strokeColor=none;fillColor=none;align=left;verticalAlign=middle;spacingLeft=4;spacingRight=4;overflow=hidden;points=[[0,0.5],[1,0.5]];portConstraint=eastwest;rotatable=0;whiteSpace=wrap;html=1;" vertex="1" parent="1">
          <mxGeometry x="390" y="190" width="70" height="20" as="geometry" />
        </mxCell>
        <mxCell id="BTguro4Eah1eRTWzlFvn-15" value="&quot;extend&quot;" style="text;strokeColor=none;fillColor=none;align=left;verticalAlign=middle;spacingLeft=4;spacingRight=4;overflow=hidden;points=[[0,0.5],[1,0.5]];portConstraint=eastwest;rotatable=0;whiteSpace=wrap;html=1;" vertex="1" parent="1">
          <mxGeometry x="310" y="190" width="70" height="20" as="geometry" />
        </mxCell>
        <mxCell id="BTguro4Eah1eRTWzlFvn-16" value="Добавить вопрос" style="ellipse;whiteSpace=wrap;html=1;" vertex="1" parent="1">
          <mxGeometry x="330" y="440" width="90" height="60" as="geometry" />
        </mxCell>
        <mxCell id="BTguro4Eah1eRTWzlFvn-17" value="Добавить ответ" style="ellipse;whiteSpace=wrap;html=1;" vertex="1" parent="1">
          <mxGeometry x="435" y="440" width="90" height="60" as="geometry" />
        </mxCell>
        <mxCell id="BTguro4Eah1eRTWzlFvn-18" value="" style="endArrow=classic;dashed=1;html=1;rounded=0;exitX=0.335;exitY=0.054;exitDx=0;exitDy=0;endFill=1;startFill=0;exitPerimeter=0;" edge="1" parent="1" source="BTguro4Eah1eRTWzlFvn-17">
          <mxGeometry width="50" height="50" relative="1" as="geometry">
            <mxPoint x="490" y="360" as="sourcePoint" />
            <mxPoint x="446" y="386" as="targetPoint" />
          </mxGeometry>
        </mxCell>
        <mxCell id="BTguro4Eah1eRTWzlFvn-19" value="" style="endArrow=classic;dashed=1;html=1;rounded=0;exitX=0.5;exitY=0;exitDx=0;exitDy=0;endFill=1;startFill=0;" edge="1" parent="1" source="BTguro4Eah1eRTWzlFvn-16" target="BTguro4Eah1eRTWzlFvn-7">
          <mxGeometry width="50" height="50" relative="1" as="geometry">
            <mxPoint x="354.5" y="453" as="sourcePoint" />
            <mxPoint x="335.5" y="396" as="targetPoint" />
          </mxGeometry>
        </mxCell>
        <mxCell id="BTguro4Eah1eRTWzlFvn-20" value="&quot;extend&quot;" style="text;strokeColor=none;fillColor=none;align=left;verticalAlign=middle;spacingLeft=4;spacingRight=4;overflow=hidden;points=[[0,0.5],[1,0.5]];portConstraint=eastwest;rotatable=0;whiteSpace=wrap;html=1;" vertex="1" parent="1">
          <mxGeometry x="455" y="404" width="70" height="20" as="geometry" />
        </mxCell>
        <mxCell id="BTguro4Eah1eRTWzlFvn-21" value="&quot;extend&quot;" style="text;strokeColor=none;fillColor=none;align=left;verticalAlign=middle;spacingLeft=4;spacingRight=4;overflow=hidden;points=[[0,0.5],[1,0.5]];portConstraint=eastwest;rotatable=0;whiteSpace=wrap;html=1;" vertex="1" parent="1">
          <mxGeometry x="385" y="410" width="70" height="20" as="geometry" />
        </mxCell>
        <mxCell id="BTguro4Eah1eRTWzlFvn-22" value="Модерация комментариев в блогах, вопросов и ответов&amp;nbsp;" style="ellipse;whiteSpace=wrap;html=1;" vertex="1" parent="1">
          <mxGeometry x="555" y="160" width="120" height="80" as="geometry" />
        </mxCell>
        <mxCell id="BTguro4Eah1eRTWzlFvn-23" value="" style="endArrow=none;html=1;rounded=0;entryX=0.5;entryY=1;entryDx=0;entryDy=0;" edge="1" parent="1" source="BTguro4Eah1eRTWzlFvn-3" target="BTguro4Eah1eRTWzlFvn-22">
          <mxGeometry width="50" height="50" relative="1" as="geometry">
            <mxPoint x="680" y="300" as="sourcePoint" />
            <mxPoint x="670" y="240" as="targetPoint" />
          </mxGeometry>
        </mxCell>
        <mxCell id="BTguro4Eah1eRTWzlFvn-24" value="" style="endArrow=none;html=1;rounded=0;entryX=0.988;entryY=0.629;entryDx=0;entryDy=0;entryPerimeter=0;" edge="1" parent="1" source="BTguro4Eah1eRTWzlFvn-3" target="BTguro4Eah1eRTWzlFvn-5">
          <mxGeometry width="50" height="50" relative="1" as="geometry">
            <mxPoint x="670" y="310" as="sourcePoint" />
            <mxPoint x="670" y="260" as="targetPoint" />
          </mxGeometry>
        </mxCell>
        <mxCell id="BTguro4Eah1eRTWzlFvn-25" value="" style="endArrow=none;html=1;rounded=0;entryX=1;entryY=0.5;entryDx=0;entryDy=0;" edge="1" parent="1" source="BTguro4Eah1eRTWzlFvn-3" target="BTguro4Eah1eRTWzlFvn-7">
          <mxGeometry width="50" height="50" relative="1" as="geometry">
            <mxPoint x="657" y="334" as="sourcePoint" />
            <mxPoint x="460" y="310" as="targetPoint" />
          </mxGeometry>
        </mxCell>
        <mxCell id="BTguro4Eah1eRTWzlFvn-26" value="Создание блога" style="ellipse;whiteSpace=wrap;html=1;" vertex="1" parent="1">
          <mxGeometry x="570" y="430" width="90" height="60" as="geometry" />
        </mxCell>
        <mxCell id="BTguro4Eah1eRTWzlFvn-27" value="" style="endArrow=none;html=1;rounded=0;exitX=0.424;exitY=0.022;exitDx=0;exitDy=0;exitPerimeter=0;" edge="1" parent="1" source="BTguro4Eah1eRTWzlFvn-26">
          <mxGeometry width="50" height="50" relative="1" as="geometry">
            <mxPoint x="634.66" y="450" as="sourcePoint" />
            <mxPoint x="610" y="390" as="targetPoint" />
          </mxGeometry>
        </mxCell>
        <mxCell id="BTguro4Eah1eRTWzlFvn-29" value="Изменить блог" style="ellipse;whiteSpace=wrap;html=1;" vertex="1" parent="1">
          <mxGeometry x="530" y="530" width="90" height="60" as="geometry" />
        </mxCell>
        <mxCell id="BTguro4Eah1eRTWzlFvn-30" value="Удалить блог" style="ellipse;whiteSpace=wrap;html=1;" vertex="1" parent="1">
          <mxGeometry x="650" y="520" width="90" height="60" as="geometry" />
        </mxCell>
        <mxCell id="BTguro4Eah1eRTWzlFvn-31" value="" style="endArrow=classic;dashed=1;html=1;rounded=0;exitX=0;exitY=1;exitDx=0;exitDy=0;endFill=1;startFill=0;entryX=0.554;entryY=0.024;entryDx=0;entryDy=0;entryPerimeter=0;" edge="1" parent="1" source="BTguro4Eah1eRTWzlFvn-26" target="BTguro4Eah1eRTWzlFvn-29">
          <mxGeometry width="50" height="50" relative="1" as="geometry">
            <mxPoint x="585" y="471" as="sourcePoint" />
            <mxPoint x="566" y="414" as="targetPoint" />
          </mxGeometry>
        </mxCell>
        <mxCell id="BTguro4Eah1eRTWzlFvn-32" value="" style="endArrow=classic;dashed=1;html=1;rounded=0;endFill=1;startFill=0;entryX=0.353;entryY=-0.005;entryDx=0;entryDy=0;entryPerimeter=0;" edge="1" parent="1" source="BTguro4Eah1eRTWzlFvn-26" target="BTguro4Eah1eRTWzlFvn-30">
          <mxGeometry width="50" height="50" relative="1" as="geometry">
            <mxPoint x="623" y="510" as="sourcePoint" />
            <mxPoint x="590" y="540" as="targetPoint" />
          </mxGeometry>
        </mxCell>
        <mxCell id="BTguro4Eah1eRTWzlFvn-34" value="&quot;include&quot;" style="text;strokeColor=none;fillColor=none;align=left;verticalAlign=middle;spacingLeft=4;spacingRight=4;overflow=hidden;points=[[0,0.5],[1,0.5]];portConstraint=eastwest;rotatable=0;whiteSpace=wrap;html=1;" vertex="1" parent="1">
          <mxGeometry x="580" y="490" width="70" height="20" as="geometry" />
        </mxCell>
        <mxCell id="BTguro4Eah1eRTWzlFvn-35" value="&quot;include&quot;" style="text;strokeColor=none;fillColor=none;align=left;verticalAlign=middle;spacingLeft=4;spacingRight=4;overflow=hidden;points=[[0,0.5],[1,0.5]];portConstraint=eastwest;rotatable=0;whiteSpace=wrap;html=1;" vertex="1" parent="1">
          <mxGeometry x="675" y="480" width="70" height="20" as="geometry" />
        </mxCell>
        <mxCell id="BTguro4Eah1eRTWzlFvn-45" value="" style="endArrow=block;html=1;rounded=0;endFill=0;" edge="1" parent="1">
          <mxGeometry width="50" height="50" relative="1" as="geometry">
            <mxPoint x="270" y="380" as="sourcePoint" />
            <mxPoint x="270" y="350" as="targetPoint" />
          </mxGeometry>
        </mxCell>
      </root>
    </mxGraphModel>
  </diagram>
</mxfile>
